<?xml version="1.0" encoding="utf-8"?>
<!-- Generator: Adobe Illustrator 15.0.0, SVG Export Plug-In . SVG Version: 6.00 Build 0)  -->
<!DOCTYPE svg PUBLIC "-//W3C//DTD SVG 1.1//EN" "http://www.w3.org/Graphics/SVG/1.1/DTD/svg11.dtd">
<svg version="1.1" id="Capa_1" xmlns="http://www.w3.org/2000/svg" xmlns:xlink="http://www.w3.org/1999/xlink" x="0px" y="0px"
	 width="158.68px" height="40px" viewBox="0 0 158.68 40" enable-background="new 0 0 158.68 40" xml:space="preserve">
<g>
	<path fill="#0160A0" d="M0,0.686c8.82-0.004,17.639,0,26.459-0.001c0.9,0.001,1.803-0.021,2.701,0.032
		C28.832,0.878,28.5,1.03,28.162,1.17c-6.303,2.553-12.275,5.908-17.771,9.912C6.729,8.652,3.229,5.967,0,2.982V0.686z"/>
	<path fill="#0160A0" d="M11.252,11.609c7.67-4.894,16.108-8.563,24.905-10.881c0.003,2.109,0.003,4.222-0.002,6.332
		c-6.058,1.754-11.901,4.232-17.398,7.317c-0.479,0.259-0.931,0.58-1.437,0.782c-0.557-0.206-1.055-0.534-1.574-0.816
		C14.227,13.468,12.689,12.616,11.252,11.609z"/>
	<path fill="#272727" d="M109.665,7.971c-1.178-2.992-3.529-5.537-6.502-6.8c-1.943-0.85-4.143-1.065-6.223-0.685
		c-2.762,0.491-5.254,2.106-6.979,4.294c-1.781,2.249-2.77,5.114-2.736,7.983c-0.033,2.906,1.006,5.802,2.846,8.049
		c1.918,2.391,4.793,4.048,7.863,4.321c2.215,0.208,4.488-0.294,6.406-1.417c2.691-1.546,4.719-4.166,5.635-7.122
		C110.87,13.798,110.756,10.695,109.665,7.971z M104.987,19.81c-1.127,1.739-2.953,3.077-5.031,3.363
		c-2.135,0.345-4.381-0.424-5.93-1.917c-1.996-1.91-2.941-4.684-3.131-7.391c-0.195-2.838,0.299-5.833,1.916-8.223
		c1.145-1.729,2.99-3.024,5.063-3.323c2.117-0.362,4.373,0.371,5.895,1.882c1.887,1.786,2.818,4.369,3.084,6.91
		C107.147,14.1,106.668,17.269,104.987,19.81z"/>
	<path fill="#272727" d="M83.969,23.088c-0.723-0.422-1.178-1.153-1.623-1.838c-1.674-2.576-3.342-5.155-5.016-7.733
		c1.411-0.242,2.842-0.771,3.829-1.854c1.393-1.415,1.719-3.543,1.508-5.448c-0.223-1.774-1.088-3.587-2.682-4.513
		c-1.513-0.873-3.317-0.979-5.024-0.973c-3.223,0.003-6.444,0-9.665,0.001c-0.002,0.473,0,0.944,0.005,1.417
		c0.896-0.007,1.791-0.007,2.689,0.003c-0.01,7.048-0.002,14.1-0.004,21.151c-0.897,0-1.795,0-2.69,0c0,0.471,0,0.94,0,1.413
		c2.887,0,5.776,0,8.663,0c0-0.473,0-0.942,0-1.413c-0.914-0.002-1.829,0.007-2.741-0.01c0.015-3.099,0-6.195,0.006-9.293
		c0.938,0,1.877-0.001,2.815,0.002c1.879,2.994,3.76,5.99,5.647,8.981c0.464,0.738,1.08,1.534,2.013,1.64
		c1.516,0.186,3.049,0.053,4.57,0.093c0-0.473,0-0.942,0-1.413C85.506,23.267,84.686,23.424,83.969,23.088z M71.229,12.268
		c-0.011-3.269-0.003-6.537-0.003-9.805c1.362,0.016,2.729-0.031,4.091,0.02c1.482,0.105,2.962,0.938,3.562,2.342
		c0.69,1.663,0.655,3.671-0.235,5.255c-0.734,1.314-2.197,2.13-3.689,2.181C73.711,12.28,72.469,12.256,71.229,12.268z"/>
	<path fill="#272727" d="M151.438,1.587c-1.459-0.597-3.039-0.864-4.611-0.858c-3.514,0.004-7.023-0.003-10.535,0.003
		c0,0.471,0,0.941,0.002,1.412c0.91,0,1.822,0,2.734,0c0,7.053,0.004,14.105-0.002,21.157c-0.912-0.002-1.822,0-2.734,0
		c-0.002,0.471-0.002,0.94,0,1.413c3.637-0.002,7.273,0.006,10.912-0.004c3.059-0.04,6.107-1.282,8.246-3.483
		c1.668-1.654,2.783-3.834,3.23-6.135v-4.797C157.901,6.432,155.108,3.042,151.438,1.587z M152.307,20.449
		c-1.471,1.507-3.553,2.4-5.66,2.396c-1.461-0.001-2.922-0.001-4.383-0.001c0-6.732,0-13.466,0-20.199c1.518,0,3.035,0,4.553-0.003
		c2.154,0.014,4.207,1.08,5.656,2.637c1.9,2.056,2.854,4.893,2.793,7.672C155.241,15.689,154.293,18.509,152.307,20.449z"/>
	<path fill="#0160A0" d="M0,3.166c2.967,3.086,6.239,5.871,9.648,8.46c-1.699,1.263-3.336,2.604-4.951,3.973
		C3.092,14.313,1.49,13.012,0,11.593V3.166z"/>
	<path fill="#272727" d="M132.02,23.303c-3.031-7.764-6.039-15.536-9.068-23.301L123.104,0H121.6
		c-3.166,7.757-6.287,15.536-9.434,23.303c-0.623-0.004-1.246-0.002-1.865-0.002c-0.002,0.471-0.002,0.94,0,1.413
		c2.324,0,4.65,0,6.977,0c-0.002-0.473-0.002-0.942,0-1.413c-1.01,0-2.016-0.002-3.021,0c0.883-2.158,1.748-4.323,2.637-6.479
		c3.076,0.008,6.152,0.004,9.23,0.004c0.834,2.159,1.678,4.314,2.516,6.475c-0.961,0-1.922-0.002-2.881,0
		c-0.002,0.471-0.002,0.94,0,1.413c2.768,0,5.531,0,8.299,0c-0.002-0.473-0.002-0.942,0-1.413
		C133.377,23.301,132.698,23.301,132.02,23.303z M117.604,15.047c1.346-3.336,2.676-6.677,4.035-10.008
		c1.352,3.31,2.561,6.678,3.852,10.014C122.86,15.041,120.233,15.052,117.604,15.047z"/>
	<path fill="#0160A0" d="M18.777,15.972c5.549-2.779,11.375-5.006,17.383-6.565c-0.003,2.106,0.002,4.213-0.003,6.319
		c-3.372,0.998-6.694,2.179-9.913,3.599C23.703,18.327,21.214,17.201,18.777,15.972z"/>
	<path fill="#0160A0" d="M0,12.056l0.002-0.213c1.42,1.394,2.867,2.762,4.339,4.102C2.832,17.223,1.415,18.605,0,19.982V12.056z"/>
	<path fill="#0160A0" d="M5.107,15.927c1.713-1.319,3.484-2.562,5.297-3.743c1.834,1.322,3.699,2.607,5.641,3.775
		c-1.913,1.199-3.797,2.444-5.627,3.765C8.602,18.523,6.832,17.254,5.107,15.927z"/>
	<path fill="#272727" d="M60.512,14.802c-1.168-1.616-3.117-2.569-5.087-2.694c1.589-0.298,3.106-1.113,4.062-2.442
		c0.95-1.242,1.2-2.918,0.815-4.42c-0.585-2.515-2.977-4.438-5.554-4.505c-3.779-0.025-7.561-0.004-11.339-0.011
		c0,0.473,0,0.944,0.003,1.417c0.91-0.007,1.82-0.003,2.732-0.003c0,7.053,0.002,14.104,0,21.157c-0.912,0-1.824,0-2.735,0
		c0,0.471,0,0.94,0,1.413c3.954,0,7.908,0.002,11.86-0.002c1.864-0.019,3.752-0.788,4.95-2.243
		C62.006,20.36,62.119,17.043,60.512,14.802z M49.382,2.463c1.359,0.001,2.716-0.002,4.075,0c1.291-0.017,2.468,0.844,3.038,1.969
		c0.721,1.418,0.735,3.16,0.124,4.616c-0.534,1.279-1.772,2.257-3.17,2.363c-1.354,0.079-2.712,0.01-4.067,0.034
		C49.382,8.452,49.382,5.457,49.382,2.463z M56.253,22.319c-0.841,0.511-1.835,0.71-2.809,0.71
		c-1.354-0.002-2.709-0.002-4.063-0.002c-0.002-3.314,0-6.627,0-9.94c1.41,0.015,2.822-0.034,4.229,0.023
		c1.549,0.046,3.072,0.873,3.872,2.211C58.82,17.496,58.58,20.907,56.253,22.319z"/>
	<path fill="#0160A0" d="M1.244,19.112c1.125-0.989,2.291-1.934,3.459-2.871c1.613,1.397,3.27,2.745,4.977,4.027
		c-1.684,1.281-3.351,2.587-4.936,3.987c-1.396-1.076-2.703-2.26-4.082-3.354c-0.184-0.215-0.371-0.427-0.565-0.631
		C0.387,19.803,0.839,19.474,1.244,19.112z"/>
	<path fill="#0160A0" d="M11.287,20.299c1.936-1.311,3.992-2.438,6.047-3.548c2.186,1.288,4.428,2.477,6.716,3.567
		c-2.29,1.063-4.513,2.268-6.696,3.533C15.289,22.736,13.268,21.553,11.287,20.299z"/>
	<path fill="#0160A0" d="M28.938,20.342c2.361-0.887,4.783-1.606,7.223-2.239c-0.001,1.49-0.001,2.98-0.001,4.47
		C33.721,21.936,31.313,21.185,28.938,20.342z"/>
	<path fill="#0160A0" d="M0,20.514c1.496,1.309,2.846,2.774,4.373,4.047C2.878,25.883,1.418,27.25,0,28.657V20.514z"/>
	<path fill="#0160A0" d="M5.143,24.566c1.708-1.317,3.488-2.537,5.273-3.743c1.834,1.331,3.732,2.566,5.627,3.8
		c-1.891,1.203-3.768,2.434-5.586,3.746C8.644,27.162,6.857,25.912,5.143,24.566z"/>
	<path fill="#0160A0" d="M19.285,24.398c2.275-1.125,4.594-2.16,6.957-3.082c3.225,1.416,6.549,2.604,9.922,3.612
		c-0.013,2.093-0.002,4.185-0.007,6.276c-5.866-1.562-11.585-3.692-17.005-6.431C18.816,24.692,19.111,24.429,19.285,24.398z"/>
	<path fill="#0160A0" d="M0,28.901c1.496-1.428,3.115-2.724,4.738-4.003c1.612,1.396,3.271,2.735,4.975,4.02
		c-3.432,2.583-6.72,5.369-9.713,8.45V28.901z"/>
	<path fill="#0160A0" d="M11.313,28.907c1.979-1.238,3.998-2.407,6.054-3.51c5.9,3.464,12.215,6.226,18.784,8.141
		c0.015,2.093,0.006,4.19,0.006,6.285C27.379,37.503,18.936,33.85,11.313,28.907z"/>
	<path fill="#0160A0" d="M0,37.567c3.24-2.999,6.789-5.656,10.469-8.093c5.84,4.263,12.229,7.77,18.96,10.41
		C19.619,39.914,9.809,39.889,0,39.897V37.567z"/>
	<path fill="#272727" d="M82.946,30.78c0.234-0.001,0.473-0.005,0.713-0.007c0.006,0.093,0.018,0.279,0.023,0.369
		c2.045,0,4.09-0.005,6.135,0.004c0.006-0.093,0.012-0.275,0.018-0.367c0.254-0.003,0.51-0.003,0.766-0.004
		c0.004,0.758,0,1.52,0.004,2.277c-0.26,0.004-0.52,0.006-0.777,0.009c-0.002-0.364,0-0.729,0.002-1.095
		c-0.732-0.003-1.463-0.009-2.195,0.007c0.014,2.412,0.002,4.827,0.006,7.24c0.41,0,0.82,0,1.23,0c0,0.147,0,0.444,0,0.593
		c-1.414,0-2.826,0-4.24,0c0-0.148,0-0.445,0-0.593c0.426,0,0.85,0,1.277,0c-0.004-2.419,0.006-4.835-0.006-7.254
		c-0.742,0.007-1.484,0.004-2.227,0.004c-0.002,0.366-0.006,0.733-0.008,1.101c-0.242-0.004-0.484-0.006-0.725-0.01
		C82.94,32.296,82.94,31.539,82.946,30.78z"/>
	<path fill="#272727" d="M134.377,30.782c0.234-0.003,0.471-0.007,0.711-0.011c0.006,0.093,0.021,0.279,0.027,0.371
		c2.045,0.002,4.088-0.005,6.135,0.004c0.004-0.091,0.014-0.275,0.018-0.367c0.252-0.003,0.508-0.003,0.766-0.004
		c0.006,0.761,0.002,1.521,0.004,2.281c-0.26,0-0.52,0.002-0.775,0.004c-0.002-0.365,0-0.731,0.002-1.097
		c-0.73,0-1.459,0.004-2.186-0.004c-0.014,2.417-0.002,4.835-0.006,7.254c0.408,0,0.818,0,1.23,0c0,0.147,0,0.444,0,0.593
		c-1.412,0-2.826,0-4.24,0c0-0.148,0-0.445,0-0.593c0.424,0,0.85,0,1.277,0c-0.002-2.419,0.004-4.835-0.004-7.251
		c-0.742,0.004-1.486,0.004-2.229,0c-0.002,0.362-0.004,0.727-0.002,1.092c-0.244,0.002-0.488,0.004-0.732,0.006
		C134.374,32.302,134.374,31.541,134.377,30.782z"/>
	<path fill="#272727" d="M153.643,31.148c-0.008-0.485,0.467-0.357,0.793-0.39c0.004,0.724,0.004,1.446,0,2.17
		c-0.246-0.005-0.488-0.011-0.73-0.017c-0.002-0.315,0.002-0.631,0.006-0.948c-0.895,0-1.791,0.004-2.686-0.004
		c-0.014,1.021-0.004,2.04-0.006,3.061c0.684,0,1.367,0,2.053,0c-0.004-0.304-0.004-0.607-0.004-0.909
		c0.256-0.003,0.518-0.004,0.777-0.006c0,0.868,0,1.734,0,2.601c-0.193,0-0.582,0-0.775,0c-0.002-0.303,0-0.605,0.004-0.908
		c-0.686-0.006-1.369-0.003-2.051-0.006c-0.008,1.063-0.004,2.128-0.004,3.194c0.928-0.002,1.855,0.004,2.787-0.005
		c-0.006-0.318-0.01-0.638-0.008-0.952c0.195,0,0.584,0.001,0.777,0.001c-0.002,0.593,0,1.184,0,1.776
		c-2.084,0-4.164,0.004-6.246-0.002c-0.002-0.146-0.004-0.439-0.006-0.585c0.32-0.003,0.639-0.007,0.963-0.009
		c-0.002-2.49,0-4.981,0-7.473c-0.326-0.002-0.645-0.004-0.963-0.008c0.002-0.147,0.004-0.439,0.006-0.588
		C150.102,31.145,151.874,31.136,153.643,31.148z"/>
	<path fill="#272727" d="M75.052,30.869c0.242,0,0.487,0,0.733,0.002c-0.004,0.76-0.004,1.518,0,2.278
		c-0.246-0.002-0.491-0.002-0.733-0.002c0-0.301,0-0.602,0.004-0.9c-0.573-0.315-1.271-0.666-1.919-0.349
		c-0.578,0.236-0.868,1.054-0.422,1.545c0.849,0.946,2.162,1.327,3.008,2.276c0.998,1.105,0.771,3.122-0.545,3.881
		c-1.023,0.601-2.313,0.451-3.338-0.065c0.132,0.56-0.452,0.397-0.797,0.451c-0.002-0.821-0.002-1.641-0.002-2.459
		c0.193,0,0.582,0,0.775-0.002c-0.002,0.33,0,0.662-0.002,0.995c0.707,0.559,1.798,0.897,2.588,0.313
		c0.518-0.346,0.573-1.133,0.147-1.575c-0.791-0.885-1.951-1.302-2.825-2.089c-1.072-0.94-0.995-2.919,0.216-3.71
		c0.917-0.61,2.104-0.548,3.115-0.229C75.056,31.142,75.052,30.96,75.052,30.869z"/>
	<path fill="#272727" d="M105.239,30.779c0.238,0,0.475-0.003,0.715-0.003c0.01,0.093,0.025,0.279,0.035,0.374
		c2.041-0.015,4.084-0.008,6.127-0.004c0.004-0.093,0.014-0.277,0.016-0.367c0.254,0,0.512,0,0.77,0c0,0.76,0,1.519,0,2.279
		c-0.26,0-0.52,0-0.775,0c-0.002-0.365-0.002-0.729,0-1.092c-0.734-0.003-1.465-0.011-2.195,0.011c0.014,2.41,0,4.821,0.006,7.233
		c0.416,0.002,0.832,0.006,1.25,0.018c-0.014,0.193-0.021,0.387-0.031,0.58c-1.41-0.006-2.82,0.004-4.23-0.006
		c0-0.146,0-0.438,0-0.585c0.426-0.004,0.852-0.004,1.279-0.005c-0.002-2.418,0.004-4.834-0.002-7.25
		c-0.744,0.004-1.486,0.004-2.229,0c-0.004,0.364-0.006,0.73-0.006,1.096c-0.244,0-0.486,0-0.729,0
		C105.239,32.3,105.239,31.539,105.239,30.779z"/>
	<path fill="#272727" d="M44.908,31.15c1.232-0.016,2.466-0.004,3.699-0.008c0,0.148-0.002,0.444-0.002,0.592
		c-0.319,0.002-0.639,0.004-0.958,0.006c0.004,2.491,0.004,4.98,0,7.473c0.317,0,0.635,0,0.952,0
		c0.002,0.198,0.006,0.395,0.01,0.594c-1.233,0-2.465,0-3.694,0c-0.001-0.148-0.001-0.443-0.001-0.59
		c0.333-0.003,0.671-0.004,1.006-0.006c-0.005-2.49-0.007-4.979,0-7.469c-0.335-0.004-0.673-0.008-1.006-0.012
		C44.912,31.587,44.91,31.297,44.908,31.15z"/>
	<path fill="#272727" d="M55.173,31.143c0.882,0,1.761,0,2.642,0c1.39,1.996,2.792,3.984,4.193,5.973
		c0.012-1.793,0.001-3.586,0.005-5.379c-0.351,0-0.7,0-1.049,0c0-0.148,0.002-0.445,0.002-0.594c1.001-0.001,2.003,0,3.006,0
		c0,0.148,0,0.445,0.002,0.594c-0.367,0-0.729,0-1.095,0c0,2.735-0.002,5.472,0.002,8.207c-0.33,0.003-0.658,0.004-0.986,0.006
		c-1.488-2.088-2.946-4.2-4.467-6.262c-0.046,1.841-0.01,3.685-0.021,5.526c0.351,0,0.698,0,1.051,0.003
		c-0.002,0.146-0.002,0.441-0.004,0.59c-1.003,0-2.004,0-3.007,0c0-0.148,0-0.445,0-0.593c0.364,0,0.729,0,1.094,0
		c0-2.13,0-4.263,0-6.393c0.053-0.41-0.229-0.733-0.405-1.073c-0.32-0.008-0.644-0.014-0.964-0.018
		C55.173,31.584,55.173,31.289,55.173,31.143z"/>
	<path fill="#272727" d="M96.165,31.143c1.24-0.003,2.477,0.008,3.715-0.007c0.014,0.195,0.029,0.393,0.045,0.588
		c-0.342,0.009-0.686,0.015-1.027,0.021c0.008,2.487,0.006,4.976,0,7.464c0.336,0.004,0.672,0.008,1.01,0.011
		c0,0.146,0.002,0.438,0.002,0.583c-1.248,0.01-2.496,0.002-3.744,0.004c0-0.148,0-0.443,0-0.59c0.334-0.003,0.67-0.004,1.008-0.008
		c-0.008-2.489-0.006-4.979-0.002-7.471c-0.336-0.002-0.672-0.002-1.006-0.002C96.165,31.587,96.165,31.291,96.165,31.143z"/>
	<path fill="#272727" d="M119.143,31.148c1.248-0.011,2.494-0.004,3.74-0.006c0,0.148,0.002,0.444,0.002,0.592
		c-0.338,0-0.67,0.004-1.004,0.006c0.01,1.704-0.01,3.408,0.006,5.112c0.029,0.61,0.086,1.296,0.555,1.745
		c1.273,1.06,3.646,0.343,3.814-1.408c0.115-1.813,0.016-3.637,0.049-5.453c-0.365,0-0.729,0-1.094,0c0-0.148,0-0.445,0-0.594
		c1.031,0,2.066,0,3.102,0c0,0.148,0,0.441,0,0.588c-0.369,0.004-0.736,0.008-1.104,0.018c0.016,1.577,0.004,3.152,0.01,4.73
		c-0.004,0.934-0.166,1.98-0.914,2.622c-1.436,1.163-3.699,1.202-5.176,0.094c-0.645-0.519-0.971-1.354-0.977-2.169
		c-0.008-1.76-0.004-3.52,0.002-5.281c-0.338-0.006-0.676-0.01-1.01-0.016C119.145,31.584,119.143,31.293,119.143,31.148z"/>
</g>
</svg>
