<?xml version="1.0" encoding="utf-8"?>
<!-- Generator: Adobe Illustrator 15.0.0, SVG Export Plug-In . SVG Version: 6.00 Build 0)  -->
<!DOCTYPE svg PUBLIC "-//W3C//DTD SVG 1.1//EN" "http://www.w3.org/Graphics/SVG/1.1/DTD/svg11.dtd">
<svg version="1.1" id="Capa_1" xmlns="http://www.w3.org/2000/svg" xmlns:xlink="http://www.w3.org/1999/xlink" x="0px" y="0px"
	 width="154.201px" height="40px" viewBox="0 0 154.201 40" enable-background="new 0 0 154.201 40" xml:space="preserve">
<g>
	<g>
		<path fill="#343A41" d="M1.305,39.503h2.879v0.417H0.808v-5.831h0.497V39.503z"/>
		<path fill="#343A41" d="M9.178,37.321c0,0.536-0.093,1.008-0.279,1.414c-0.186,0.404-0.45,0.718-0.794,0.937
			C7.76,39.891,7.362,40,6.911,40c-0.681,0-1.23-0.244-1.649-0.731c-0.419-0.486-0.628-1.144-0.628-1.972v-0.601
			c0-0.531,0.094-1.002,0.281-1.411c0.189-0.41,0.455-0.725,0.8-0.944c0.344-0.222,0.741-0.331,1.189-0.331
			c0.449,0,0.845,0.108,1.188,0.324c0.343,0.217,0.608,0.521,0.795,0.917c0.187,0.396,0.284,0.853,0.292,1.373V37.321z
			 M8.685,36.688c0-0.702-0.159-1.253-0.477-1.649c-0.318-0.398-0.753-0.597-1.306-0.597c-0.542,0-0.973,0.199-1.295,0.598
			c-0.322,0.399-0.482,0.957-0.482,1.673v0.608c0,0.691,0.16,1.239,0.48,1.644s0.755,0.607,1.305,0.607c0.558,0,0.994-0.2,1.306-0.6
			c0.313-0.398,0.468-0.955,0.468-1.668V36.688z"/>
		<path fill="#343A41" d="M13.719,38.486c0-0.323-0.114-0.578-0.34-0.767c-0.227-0.188-0.642-0.366-1.246-0.537
			c-0.604-0.169-1.044-0.354-1.321-0.555c-0.396-0.282-0.593-0.653-0.593-1.113c0-0.445,0.184-0.808,0.551-1.087
			c0.367-0.278,0.836-0.418,1.408-0.418c0.387,0,0.733,0.074,1.039,0.224s0.543,0.358,0.711,0.625
			c0.168,0.268,0.252,0.564,0.252,0.894h-0.497c0-0.399-0.136-0.721-0.409-0.963c-0.272-0.242-0.638-0.363-1.097-0.363
			c-0.446,0-0.801,0.1-1.066,0.299c-0.264,0.199-0.396,0.459-0.396,0.78c0,0.297,0.119,0.539,0.356,0.726
			c0.237,0.188,0.618,0.353,1.141,0.495c0.523,0.144,0.92,0.292,1.189,0.445s0.473,0.338,0.608,0.551
			c0.136,0.214,0.205,0.466,0.205,0.757c0,0.459-0.184,0.828-0.551,1.105S12.813,40,12.213,40c-0.411,0-0.789-0.072-1.131-0.22
			c-0.343-0.147-0.604-0.353-0.781-0.617s-0.266-0.567-0.266-0.908h0.493c0,0.411,0.153,0.735,0.46,0.973
			c0.307,0.236,0.716,0.356,1.226,0.356c0.454,0,0.818-0.101,1.093-0.301S13.719,38.818,13.719,38.486z"/>
		<path fill="#343A41" d="M18.576,38.486c0-0.323-0.114-0.578-0.34-0.767c-0.227-0.188-0.642-0.366-1.246-0.537
			c-0.604-0.169-1.043-0.354-1.321-0.555c-0.396-0.282-0.593-0.653-0.593-1.113c0-0.445,0.184-0.808,0.551-1.087
			c0.367-0.278,0.836-0.418,1.407-0.418c0.387,0,0.733,0.074,1.04,0.224c0.305,0.149,0.542,0.358,0.71,0.625
			c0.168,0.268,0.252,0.564,0.252,0.894H18.54c0-0.399-0.136-0.721-0.409-0.963c-0.272-0.242-0.638-0.363-1.097-0.363
			c-0.446,0-0.801,0.1-1.065,0.299c-0.264,0.199-0.396,0.459-0.396,0.78c0,0.297,0.119,0.539,0.356,0.726
			c0.238,0.188,0.618,0.353,1.142,0.495c0.523,0.144,0.92,0.292,1.189,0.445s0.473,0.338,0.609,0.551
			c0.136,0.214,0.204,0.466,0.204,0.757c0,0.459-0.184,0.828-0.551,1.105C18.155,39.861,17.671,40,17.07,40
			c-0.411,0-0.788-0.072-1.131-0.22c-0.344-0.147-0.604-0.353-0.781-0.617s-0.266-0.567-0.266-0.908h0.493
			c0,0.411,0.153,0.735,0.46,0.973c0.307,0.236,0.715,0.356,1.225,0.356c0.454,0,0.818-0.101,1.093-0.301
			S18.576,38.818,18.576,38.486z"/>
		<path fill="#343A41" d="M21.512,37.55h-1.918v-0.404h1.918V37.55z"/>
		<path fill="#343A41" d="M26.789,37.321c0,0.536-0.093,1.008-0.278,1.414c-0.186,0.404-0.451,0.718-0.795,0.937
			C25.372,39.891,24.974,40,24.523,40c-0.681,0-1.231-0.244-1.65-0.731c-0.419-0.486-0.629-1.144-0.629-1.972v-0.601
			c0-0.531,0.094-1.002,0.282-1.411c0.188-0.41,0.455-0.725,0.799-0.944c0.344-0.222,0.741-0.331,1.189-0.331
			c0.449,0,0.845,0.108,1.188,0.324c0.343,0.217,0.608,0.521,0.795,0.917s0.284,0.853,0.292,1.373V37.321z M26.297,36.688
			c0-0.702-0.159-1.253-0.477-1.649c-0.318-0.398-0.753-0.597-1.306-0.597c-0.542,0-0.974,0.199-1.296,0.598
			c-0.321,0.399-0.482,0.957-0.482,1.673v0.608c0,0.691,0.161,1.239,0.481,1.644s0.755,0.607,1.306,0.607
			c0.558,0,0.993-0.2,1.305-0.6c0.313-0.398,0.469-0.955,0.469-1.668V36.688z"/>
		<path fill="#343A41" d="M31.242,37.193h-2.719v2.727h-0.493v-5.831h3.612v0.417h-3.119v2.271h2.719V37.193z"/>
		<path fill="#343A41" d="M37.85,37.193h-2.719v2.727h-0.493v-5.831h3.612v0.417h-3.119v2.271h2.719V37.193z"/>
		<path fill="#343A41" d="M43.268,34.089v3.98c-0.002,0.393-0.089,0.734-0.26,1.026c-0.171,0.291-0.412,0.515-0.723,0.67
			C41.974,39.922,41.617,40,41.213,40c-0.614,0-1.106-0.168-1.476-0.502c-0.37-0.335-0.562-0.799-0.575-1.392v-4.018h0.489v3.944
			c0,0.492,0.14,0.874,0.42,1.145s0.661,0.406,1.141,0.406s0.861-0.137,1.14-0.409c0.279-0.271,0.418-0.65,0.418-1.137v-3.949
			H43.268z"/>
		<path fill="#343A41" d="M48.982,39.92H48.49l-3.352-4.989v4.989h-0.497v-5.831h0.497l3.356,4.994v-4.994h0.488V39.92z"/>
		<path fill="#343A41" d="M54.593,38.102c-0.067,0.614-0.287,1.084-0.659,1.41S53.066,40,52.446,40
			c-0.433,0-0.815-0.107-1.147-0.324c-0.332-0.217-0.589-0.522-0.771-0.92c-0.182-0.395-0.274-0.849-0.276-1.358v-0.757
			c0-0.518,0.09-0.978,0.272-1.377c0.182-0.401,0.443-0.711,0.783-0.929c0.341-0.217,0.732-0.325,1.176-0.325
			c0.625,0,1.118,0.168,1.479,0.504c0.362,0.337,0.572,0.802,0.631,1.398h-0.497c-0.123-0.991-0.66-1.486-1.613-1.486
			c-0.529,0-0.95,0.198-1.264,0.594c-0.313,0.395-0.471,0.941-0.471,1.639v0.713c0,0.674,0.153,1.211,0.459,1.611
			c0.306,0.401,0.719,0.602,1.239,0.602c0.515,0,0.903-0.124,1.165-0.371c0.262-0.246,0.423-0.617,0.484-1.111H54.593z"/>
		<path fill="#343A41" d="M59.63,34.506h-1.998v5.414h-0.493v-5.414h-1.994v-0.417h4.485V34.506z"/>
		<path fill="#343A41" d="M61.172,39.92H60.68v-5.831h0.492V39.92z"/>
		<path fill="#343A41" d="M67.063,37.321c0,0.536-0.093,1.008-0.278,1.414c-0.186,0.404-0.45,0.718-0.794,0.937
			C65.645,39.891,65.247,40,64.796,40c-0.681,0-1.231-0.244-1.65-0.731c-0.42-0.486-0.629-1.144-0.629-1.972v-0.601
			c0-0.531,0.094-1.002,0.282-1.411c0.188-0.41,0.455-0.725,0.799-0.944c0.345-0.222,0.741-0.331,1.189-0.331
			s0.844,0.108,1.187,0.324c0.343,0.217,0.608,0.521,0.795,0.917s0.285,0.853,0.292,1.373V37.321z M66.57,36.688
			c0-0.702-0.159-1.253-0.477-1.649c-0.318-0.398-0.753-0.597-1.306-0.597c-0.542,0-0.974,0.199-1.295,0.598
			c-0.322,0.399-0.483,0.957-0.483,1.673v0.608c0,0.691,0.16,1.239,0.481,1.644c0.32,0.404,0.755,0.607,1.306,0.607
			c0.557,0,0.993-0.2,1.305-0.6c0.313-0.398,0.469-0.955,0.469-1.668V36.688z"/>
		<path fill="#343A41" d="M72.645,39.92h-0.493l-3.352-4.989v4.989h-0.497v-5.831h0.497l3.355,4.994v-4.994h0.489V39.92z"/>
		<path fill="#343A41" d="M77.879,39.199l0.032,0.124l0.037-0.124l1.834-5.11h0.541l-2.171,5.831h-0.473l-2.17-5.831h0.537
			L77.879,39.199z"/>
		<path fill="#343A41" d="M84.026,38.282h-2.647l-0.601,1.638h-0.516l2.206-5.831h0.469l2.206,5.831H84.63L84.026,38.282z
			 M81.531,37.865h2.338l-1.169-3.176L81.531,37.865z"/>
		<path fill="#343A41" d="M88.179,37.489h-1.694v2.431h-0.496v-5.831h1.894c0.622,0,1.108,0.151,1.458,0.452
			c0.35,0.302,0.524,0.723,0.524,1.265c0,0.372-0.109,0.702-0.329,0.987s-0.512,0.482-0.881,0.592l1.458,2.483v0.052h-0.524
			L88.179,37.489z M86.484,37.072h1.51c0.414,0,0.746-0.117,0.997-0.352c0.251-0.236,0.376-0.541,0.376-0.915
			c0-0.412-0.131-0.731-0.392-0.959c-0.262-0.228-0.629-0.341-1.101-0.341h-1.39V37.072z"/>
		<path fill="#343A41" d="M91.807,39.92h-0.493v-5.831h0.493V39.92z"/>
		<path fill="#343A41" d="M96.608,38.282h-2.647L93.36,39.92h-0.517l2.207-5.831h0.468l2.206,5.831h-0.512L96.608,38.282z
			 M94.113,37.865h2.338l-1.169-3.176L94.113,37.865z"/>
		<path fill="#343A41" d="M102.923,39.92h-0.493l-3.352-4.989v4.989h-0.497v-5.831h0.497l3.356,4.994v-4.994h0.488V39.92z"/>
		<path fill="#343A41" d="M108.245,34.506h-1.999v5.414h-0.493v-5.414h-1.994v-0.417h4.485V34.506z"/>
		<path fill="#343A41" d="M112.421,38.486c0-0.323-0.113-0.578-0.34-0.767c-0.228-0.188-0.642-0.366-1.246-0.537
			c-0.604-0.169-1.044-0.354-1.321-0.555c-0.396-0.282-0.593-0.653-0.593-1.113c0-0.445,0.184-0.808,0.551-1.087
			c0.367-0.278,0.836-0.418,1.407-0.418c0.387,0,0.733,0.074,1.04,0.224c0.305,0.149,0.542,0.358,0.71,0.625
			c0.168,0.268,0.252,0.564,0.252,0.894h-0.497c0-0.399-0.136-0.721-0.409-0.963c-0.272-0.242-0.638-0.363-1.097-0.363
			c-0.446,0-0.801,0.1-1.065,0.299c-0.264,0.199-0.396,0.459-0.396,0.78c0,0.297,0.119,0.539,0.356,0.726
			c0.238,0.188,0.618,0.353,1.142,0.495c0.523,0.144,0.919,0.292,1.189,0.445c0.27,0.153,0.473,0.338,0.608,0.551
			c0.136,0.214,0.204,0.466,0.204,0.757c0,0.459-0.184,0.828-0.551,1.105C112,39.861,111.517,40,110.916,40
			c-0.411,0-0.789-0.072-1.131-0.22c-0.344-0.147-0.604-0.353-0.781-0.617s-0.266-0.567-0.266-0.908h0.493
			c0,0.411,0.153,0.735,0.46,0.973c0.307,0.236,0.715,0.356,1.225,0.356c0.454,0,0.818-0.101,1.093-0.301
			S112.421,38.818,112.421,38.486z"/>
		<path fill="#343A41" d="M115.974,39.92v-5.831h1.63c0.478,0,0.906,0.109,1.285,0.327c0.379,0.218,0.675,0.529,0.887,0.935
			c0.212,0.406,0.318,0.867,0.318,1.386v0.536c0,0.521-0.105,0.983-0.316,1.386c-0.211,0.404-0.508,0.715-0.891,0.934
			s-0.822,0.328-1.319,0.328H115.974z M116.466,34.506v4.997h1.105c0.614,0,1.106-0.203,1.477-0.61s0.557-0.959,0.557-1.653v-0.514
			c0-0.67-0.183-1.207-0.548-1.61s-0.848-0.605-1.446-0.609H116.466z"/>
		<path fill="#343A41" d="M124.407,38.282h-2.647l-0.601,1.638h-0.517l2.207-5.831h0.468l2.207,5.831h-0.513L124.407,38.282z
			 M121.912,37.865h2.339l-1.169-3.176L121.912,37.865z"/>
		<path fill="#343A41" d="M129.821,34.506h-1.998v5.414h-0.493v-5.414h-1.995v-0.417h4.485V34.506z"/>
		<path fill="#343A41" d="M133.594,38.282h-2.647l-0.601,1.638h-0.516l2.206-5.831h0.468l2.207,5.831h-0.513L133.594,38.282z
			 M131.099,37.865h2.338l-1.169-3.176L131.099,37.865z"/>
		<path fill="#343A41" d="M135.567,39.92v-5.831h1.722c0.625,0,1.099,0.129,1.422,0.388c0.323,0.257,0.484,0.638,0.484,1.14
			c0,0.302-0.083,0.564-0.247,0.788c-0.164,0.223-0.389,0.382-0.674,0.478c0.338,0.075,0.612,0.241,0.819,0.502
			c0.207,0.258,0.31,0.556,0.31,0.896c0,0.516-0.166,0.917-0.499,1.207c-0.333,0.289-0.794,0.434-1.388,0.434H135.567z
			 M136.06,36.704h1.346c0.411-0.008,0.729-0.104,0.955-0.29c0.225-0.186,0.338-0.457,0.338-0.813c0-0.374-0.117-0.651-0.351-0.829
			c-0.233-0.177-0.587-0.267-1.06-0.267h-1.229V36.704z M136.06,37.121v2.382h1.478c0.422,0,0.756-0.106,1.003-0.321
			c0.247-0.215,0.371-0.512,0.371-0.894c0-0.359-0.119-0.645-0.354-0.853c-0.236-0.21-0.563-0.314-0.979-0.314H136.06z"/>
		<path fill="#343A41" d="M143.741,38.282h-2.647l-0.601,1.638h-0.517l2.207-5.831h0.468l2.206,5.831h-0.512L143.741,38.282z
			 M141.246,37.865h2.339l-1.169-3.176L141.246,37.865z"/>
		<path fill="#343A41" d="M149.015,38.486c0-0.323-0.114-0.578-0.34-0.767c-0.227-0.188-0.642-0.366-1.245-0.537
			c-0.604-0.169-1.044-0.354-1.322-0.555c-0.395-0.282-0.593-0.653-0.593-1.113c0-0.445,0.184-0.808,0.551-1.087
			c0.367-0.278,0.836-0.418,1.407-0.418c0.387,0,0.734,0.074,1.04,0.224s0.542,0.358,0.71,0.625
			c0.168,0.268,0.252,0.564,0.252,0.894h-0.497c0-0.399-0.136-0.721-0.408-0.963s-0.638-0.363-1.098-0.363
			c-0.445,0-0.801,0.1-1.065,0.299s-0.396,0.459-0.396,0.78c0,0.297,0.118,0.539,0.356,0.726c0.238,0.188,0.618,0.353,1.142,0.495
			c0.523,0.144,0.919,0.292,1.189,0.445c0.269,0.153,0.472,0.338,0.608,0.551c0.136,0.214,0.205,0.466,0.205,0.757
			c0,0.459-0.184,0.828-0.551,1.105c-0.367,0.277-0.851,0.416-1.451,0.416c-0.412,0-0.789-0.072-1.131-0.22
			c-0.343-0.147-0.604-0.353-0.781-0.617c-0.177-0.265-0.266-0.567-0.266-0.908h0.493c0,0.411,0.153,0.735,0.46,0.973
			c0.307,0.236,0.716,0.356,1.226,0.356c0.454,0,0.818-0.101,1.093-0.301C148.877,39.083,149.015,38.818,149.015,38.486z"/>
		<path fill="#343A41" d="M153.792,37.124h-2.728v2.379h3.136v0.417h-3.628v-5.831h3.608v0.417h-3.116v2.203h2.728V37.124z"/>
	</g>
	<g>
		<path fill="#24AFB2" d="M0,15.857c0-2.706,0.604-4.859,1.811-6.465c1.208-1.604,2.847-2.406,4.918-2.406
			c2.35,0,4.142,0.93,5.377,2.785V0h1.915v24.727h-1.803l-0.08-2.318c-1.235,1.76-3.048,2.64-5.441,2.64
			c-2.007,0-3.625-0.808-4.854-2.422C0.614,21.01,0,18.83,0,16.082V15.857z M1.948,16.193c0,2.223,0.445,3.974,1.336,5.258
			c0.891,1.281,2.146,1.922,3.767,1.922c2.372,0,4.057-1.045,5.055-3.139v-8.178c-0.999-2.264-2.672-3.396-5.023-3.396
			c-1.62,0-2.881,0.636-3.782,1.907C2.399,11.84,1.948,13.716,1.948,16.193z"/>
		<path fill="#24AFB2" d="M33.113,16.193c0,2.716-0.602,4.871-1.803,6.465c-1.202,1.594-2.817,2.39-4.846,2.39
			c-2.426,0-4.26-0.901-5.505-2.703l-0.081,2.382h-1.803V0h1.916v9.835c1.223-1.899,3.036-2.849,5.44-2.849
			c2.061,0,3.689,0.786,4.886,2.359c1.197,1.57,1.795,3.758,1.795,6.559V16.193z M31.182,15.857c0-2.297-0.445-4.07-1.336-5.32
			c-0.891-1.252-2.146-1.876-3.768-1.876c-1.234,0-2.28,0.303-3.139,0.91c-0.859,0.605-1.508,1.493-1.947,2.663v7.855
			c0.965,2.189,2.672,3.283,5.119,3.283c1.588,0,2.831-0.627,3.727-1.882C30.733,20.234,31.182,18.357,31.182,15.857z"/>
		<path fill="#343A41" d="M41.774,20.847h10.254v3.88H36.945V1.288h4.829V20.847z"/>
		<path fill="#343A41" d="M53.767,15.857c0-1.729,0.333-3.27,0.999-4.621c0.665-1.352,1.623-2.398,2.873-3.139
			c1.25-0.74,2.702-1.111,4.355-1.111c2.35,0,4.268,0.72,5.755,2.157c1.486,1.438,2.315,3.392,2.487,5.858l0.032,1.191
			c0,2.672-0.746,4.816-2.238,6.433c-1.491,1.614-3.493,2.422-6.004,2.422c-2.512,0-4.516-0.804-6.013-2.414
			c-1.497-1.61-2.246-3.8-2.246-6.569V15.857z M58.419,16.187c0,1.655,0.311,2.921,0.934,3.797c0.622,0.876,1.513,1.315,2.672,1.315
			c1.127,0,2.006-0.435,2.64-1.3c0.633-0.864,0.95-2.248,0.95-4.15c0-1.624-0.317-2.882-0.95-3.772
			c-0.634-0.893-1.524-1.34-2.672-1.34c-1.138,0-2.018,0.444-2.64,1.332C58.73,12.955,58.419,14.327,58.419,16.187z"/>
		<path fill="#343A41" d="M87.54,15.146h-9.272v9.58h-4.83V1.288h15.261V5.2H78.268v6.052h9.272V15.146z"/>
	</g>
</g>
</svg>
