<?xml version="1.0" encoding="utf-8"?>
<!-- Generator: Adobe Illustrator 15.0.0, SVG Export Plug-In . SVG Version: 6.00 Build 0)  -->
<!DOCTYPE svg PUBLIC "-//W3C//DTD SVG 1.1//EN" "http://www.w3.org/Graphics/SVG/1.1/DTD/svg11.dtd">
<svg version="1.1" id="Capa_1" xmlns="http://www.w3.org/2000/svg" xmlns:xlink="http://www.w3.org/1999/xlink" x="0px" y="0px"
	 width="192.75px" height="50px" viewBox="0 0 192.75 50" enable-background="new 0 0 192.75 50" xml:space="preserve">
<g>
	<g>
		<path fill="#FFFFFF" d="M1.63,49.379h3.599v0.521H1.01v-7.288H1.63V49.379z"/>
		<path fill="#FFFFFF" d="M11.472,46.651c0,0.671-0.116,1.26-0.348,1.768c-0.232,0.506-0.563,0.897-0.993,1.171
			C9.7,49.863,9.203,50,8.638,50c-0.851,0-1.538-0.305-2.062-0.914c-0.524-0.608-0.786-1.43-0.786-2.465V45.87
			c0-0.664,0.118-1.252,0.352-1.764c0.236-0.513,0.569-0.906,1-1.181c0.43-0.276,0.926-0.414,1.486-0.414s1.056,0.136,1.484,0.406
			s0.76,0.651,0.994,1.146s0.355,1.066,0.365,1.717V46.651z M10.856,45.86c0-0.877-0.199-1.565-0.596-2.062
			c-0.397-0.498-0.941-0.746-1.632-0.746c-0.678,0-1.217,0.249-1.62,0.747c-0.402,0.5-0.603,1.196-0.603,2.091v0.761
			c0,0.864,0.2,1.549,0.601,2.055c0.4,0.506,0.944,0.759,1.631,0.759c0.698,0,1.242-0.25,1.632-0.749
			c0.391-0.498,0.585-1.193,0.585-2.085V45.86z"/>
		<path fill="#FFFFFF" d="M17.148,48.108c0-0.404-0.142-0.724-0.425-0.959c-0.284-0.235-0.803-0.458-1.557-0.671
			c-0.754-0.212-1.305-0.443-1.651-0.693c-0.494-0.354-0.741-0.817-0.741-1.392c0-0.557,0.229-1.01,0.688-1.358
			s1.045-0.523,1.76-0.523c0.483,0,0.916,0.093,1.298,0.28c0.382,0.187,0.679,0.447,0.889,0.781c0.21,0.334,0.315,0.705,0.315,1.116
			h-0.621c0-0.499-0.17-0.9-0.511-1.203c-0.34-0.303-0.797-0.454-1.371-0.454c-0.558,0-1.001,0.125-1.332,0.373
			c-0.33,0.25-0.495,0.574-0.495,0.976c0,0.371,0.148,0.674,0.445,0.907c0.297,0.234,0.773,0.44,1.426,0.619
			c0.654,0.18,1.15,0.365,1.487,0.557s0.591,0.422,0.761,0.688c0.17,0.267,0.256,0.582,0.256,0.945c0,0.574-0.23,1.035-0.688,1.382
			C16.622,49.827,16.017,50,15.266,50c-0.514,0-0.985-0.091-1.414-0.274c-0.429-0.185-0.754-0.44-0.977-0.771
			c-0.222-0.331-0.333-0.71-0.333-1.136h0.616c0,0.514,0.191,0.919,0.575,1.216c0.384,0.296,0.895,0.445,1.532,0.445
			c0.567,0,1.023-0.125,1.367-0.375C16.976,48.854,17.148,48.522,17.148,48.108z"/>
		<path fill="#FFFFFF" d="M23.22,48.108c0-0.404-0.142-0.724-0.425-0.959c-0.284-0.235-0.802-0.458-1.557-0.671
			c-0.754-0.212-1.305-0.443-1.652-0.693c-0.494-0.354-0.741-0.817-0.741-1.392c0-0.557,0.229-1.01,0.689-1.358
			c0.458-0.349,1.045-0.523,1.759-0.523c0.484,0,0.917,0.093,1.299,0.28c0.382,0.187,0.678,0.447,0.888,0.781
			s0.315,0.705,0.315,1.116h-0.621c0-0.499-0.17-0.9-0.511-1.203c-0.34-0.303-0.797-0.454-1.372-0.454
			c-0.557,0-1.001,0.125-1.332,0.373c-0.33,0.25-0.495,0.574-0.495,0.976c0,0.371,0.148,0.674,0.445,0.907
			c0.297,0.234,0.773,0.44,1.427,0.619c0.655,0.18,1.15,0.365,1.487,0.557s0.591,0.422,0.761,0.688s0.255,0.582,0.255,0.945
			c0,0.574-0.229,1.035-0.688,1.382C22.693,49.827,22.088,50,21.337,50c-0.514,0-0.985-0.091-1.414-0.274
			c-0.429-0.185-0.754-0.44-0.977-0.771c-0.222-0.331-0.333-0.71-0.333-1.136h0.616c0,0.514,0.192,0.919,0.576,1.216
			c0.383,0.296,0.895,0.445,1.531,0.445c0.568,0,1.023-0.125,1.367-0.375C23.048,48.854,23.22,48.522,23.22,48.108z"/>
		<path fill="#FFFFFF" d="M26.889,46.938h-2.398v-0.506h2.398V46.938z"/>
		<path fill="#FFFFFF" d="M33.486,46.651c0,0.671-0.116,1.26-0.348,1.768c-0.232,0.506-0.563,0.897-0.994,1.171
			C31.714,49.863,31.217,50,30.653,50c-0.851,0-1.539-0.305-2.063-0.914c-0.524-0.608-0.786-1.43-0.786-2.465V45.87
			c0-0.664,0.117-1.252,0.353-1.764c0.235-0.513,0.568-0.906,0.999-1.181c0.43-0.276,0.926-0.414,1.486-0.414
			c0.561,0,1.056,0.136,1.484,0.406s0.76,0.651,0.994,1.146s0.355,1.066,0.365,1.717V46.651z M32.871,45.86
			c0-0.877-0.198-1.565-0.595-2.062c-0.397-0.498-0.941-0.746-1.632-0.746c-0.678,0-1.217,0.249-1.62,0.747
			c-0.402,0.5-0.603,1.196-0.603,2.091v0.761c0,0.864,0.201,1.549,0.601,2.055s0.944,0.759,1.632,0.759
			c0.697,0,1.241-0.25,1.632-0.749c0.39-0.498,0.585-1.193,0.585-2.085V45.86z"/>
		<path fill="#FFFFFF" d="M39.053,46.491h-3.399v3.408h-0.616v-7.288h4.515v0.521h-3.899v2.838h3.399V46.491z"/>
		<path fill="#FFFFFF" d="M47.312,46.491h-3.399v3.408h-0.616v-7.288h4.515v0.521h-3.899v2.838h3.399V46.491z"/>
		<path fill="#FFFFFF" d="M54.084,42.611v4.976c-0.003,0.49-0.112,0.918-0.325,1.282c-0.214,0.364-0.515,0.644-0.903,0.838
			C52.467,49.902,52.021,50,51.517,50c-0.768,0-1.382-0.21-1.845-0.627c-0.462-0.419-0.702-0.999-0.718-1.74v-5.021h0.611v4.931
			c0,0.614,0.175,1.092,0.525,1.43c0.351,0.339,0.826,0.508,1.427,0.508s1.076-0.17,1.424-0.511c0.349-0.34,0.523-0.813,0.523-1.421
			v-4.937H54.084z"/>
		<path fill="#FFFFFF" d="M61.228,49.899h-0.616l-4.189-6.236v6.236h-0.621v-7.288h0.621l4.195,6.242v-6.242h0.61V49.899z"/>
		<path fill="#FFFFFF" d="M68.241,47.627c-0.083,0.768-0.358,1.355-0.824,1.763C66.951,49.797,66.332,50,65.558,50
			c-0.541,0-1.019-0.135-1.435-0.405c-0.415-0.271-0.736-0.653-0.963-1.149c-0.227-0.494-0.342-1.062-0.345-1.698v-0.946
			c0-0.647,0.113-1.222,0.34-1.722c0.227-0.501,0.553-0.888,0.979-1.16c0.426-0.271,0.916-0.407,1.469-0.407
			c0.781,0,1.397,0.21,1.85,0.631s0.715,1.002,0.789,1.747H67.62c-0.153-1.238-0.826-1.857-2.017-1.857
			c-0.661,0-1.187,0.248-1.579,0.742c-0.392,0.493-0.588,1.177-0.588,2.048v0.892c0,0.842,0.191,1.514,0.573,2.014
			c0.382,0.502,0.898,0.752,1.549,0.752c0.644,0,1.129-0.154,1.457-0.464c0.327-0.308,0.529-0.771,0.605-1.389H68.241z"/>
		<path fill="#FFFFFF" d="M74.538,43.133H72.04v6.767h-0.616v-6.767h-2.492v-0.521h5.606V43.133z"/>
		<path fill="#FFFFFF" d="M76.465,49.899h-0.616v-7.288h0.616V49.899z"/>
		<path fill="#FFFFFF" d="M83.828,46.651c0,0.671-0.116,1.26-0.348,1.768c-0.232,0.506-0.563,0.897-0.993,1.171
			C82.056,49.863,81.559,50,80.995,50c-0.851,0-1.539-0.305-2.063-0.914c-0.524-0.608-0.786-1.43-0.786-2.465V45.87
			c0-0.664,0.117-1.252,0.353-1.764c0.235-0.513,0.568-0.906,0.999-1.181c0.431-0.276,0.926-0.414,1.487-0.414
			s1.055,0.136,1.484,0.406c0.429,0.271,0.76,0.651,0.994,1.146c0.233,0.494,0.355,1.066,0.365,1.717V46.651z M83.212,45.86
			c0-0.877-0.199-1.565-0.596-2.062c-0.397-0.498-0.941-0.746-1.632-0.746c-0.678,0-1.217,0.249-1.619,0.747
			c-0.402,0.5-0.604,1.196-0.604,2.091v0.761c0,0.864,0.2,1.549,0.601,2.055c0.4,0.506,0.944,0.759,1.632,0.759
			c0.697,0,1.241-0.25,1.631-0.749c0.391-0.498,0.586-1.193,0.586-2.085V45.86z"/>
		<path fill="#FFFFFF" d="M90.806,49.899H90.19l-4.189-6.236v6.236H85.38v-7.288h0.621l4.194,6.242v-6.242h0.611V49.899z"/>
		<path fill="#FFFFFF" d="M97.348,48.999l0.04,0.155l0.046-0.155l2.292-6.388h0.676l-2.714,7.288h-0.59l-2.713-7.288h0.67
			L97.348,48.999z"/>
		<path fill="#FFFFFF" d="M105.032,47.853h-3.309l-0.751,2.047h-0.646l2.758-7.288h0.586l2.758,7.288h-0.641L105.032,47.853z
			 M101.914,47.332h2.923l-1.461-3.97L101.914,47.332z"/>
		<path fill="#FFFFFF" d="M110.223,46.861h-2.117v3.038h-0.621v-7.288h2.367c0.777,0,1.385,0.188,1.822,0.565
			s0.656,0.902,0.656,1.58c0,0.466-0.137,0.878-0.411,1.234s-0.641,0.604-1.101,0.74l1.821,3.104v0.064h-0.655L110.223,46.861z
			 M108.106,46.341h1.887c0.518,0,0.933-0.146,1.246-0.44c0.313-0.295,0.471-0.676,0.471-1.144c0-0.515-0.164-0.914-0.49-1.198
			c-0.328-0.284-0.786-0.426-1.377-0.426h-1.736V46.341z"/>
		<path fill="#FFFFFF" d="M114.758,49.899h-0.616v-7.288h0.616V49.899z"/>
		<path fill="#FFFFFF" d="M120.76,47.853h-3.309l-0.752,2.047h-0.646l2.759-7.288h0.585l2.758,7.288h-0.64L120.76,47.853z
			 M117.641,47.332h2.924l-1.463-3.97L117.641,47.332z"/>
		<path fill="#FFFFFF" d="M128.653,49.899h-0.615l-4.189-6.236v6.236h-0.621v-7.288h0.621l4.195,6.242v-6.242h0.609V49.899z"/>
		<path fill="#FFFFFF" d="M135.306,43.133h-2.498v6.767h-0.616v-6.767H129.7v-0.521h5.606V43.133z"/>
		<path fill="#FFFFFF" d="M140.526,48.108c0-0.404-0.141-0.724-0.424-0.959c-0.285-0.235-0.803-0.458-1.558-0.671
			c-0.754-0.212-1.305-0.443-1.651-0.693c-0.494-0.354-0.741-0.817-0.741-1.392c0-0.557,0.229-1.01,0.688-1.358
			s1.045-0.523,1.76-0.523c0.483,0,0.916,0.093,1.299,0.28c0.382,0.187,0.678,0.447,0.889,0.781c0.21,0.334,0.314,0.705,0.314,1.116
			h-0.62c0-0.499-0.171-0.9-0.511-1.203s-0.797-0.454-1.371-0.454c-0.558,0-1.002,0.125-1.332,0.373
			c-0.33,0.25-0.496,0.574-0.496,0.976c0,0.371,0.148,0.674,0.445,0.907c0.298,0.234,0.773,0.44,1.428,0.619
			c0.654,0.18,1.148,0.365,1.486,0.557c0.337,0.191,0.591,0.422,0.761,0.688c0.171,0.267,0.255,0.582,0.255,0.945
			c0,0.574-0.229,1.035-0.688,1.382C140,49.827,139.395,50,138.645,50c-0.514,0-0.986-0.091-1.414-0.274
			c-0.43-0.185-0.754-0.44-0.977-0.771c-0.222-0.331-0.332-0.71-0.332-1.136h0.615c0,0.514,0.191,0.919,0.576,1.216
			c0.383,0.296,0.894,0.445,1.531,0.445c0.566,0,1.022-0.125,1.366-0.375C140.355,48.854,140.526,48.522,140.526,48.108z"/>
		<path fill="#FFFFFF" d="M144.967,49.899v-7.288h2.037c0.597,0,1.133,0.137,1.606,0.408c0.474,0.272,0.844,0.662,1.108,1.169
			c0.266,0.508,0.398,1.084,0.398,1.732v0.67c0,0.651-0.132,1.229-0.396,1.732c-0.264,0.505-0.636,0.893-1.114,1.167
			c-0.479,0.272-1.027,0.409-1.648,0.409H144.967z M145.583,43.133v6.246h1.382c0.767,0,1.383-0.254,1.847-0.763
			c0.463-0.51,0.695-1.199,0.695-2.067v-0.642c0-0.838-0.229-1.509-0.686-2.013c-0.457-0.505-1.06-0.758-1.807-0.762H145.583z"/>
		<path fill="#FFFFFF" d="M155.508,47.853H152.2l-0.75,2.047h-0.646l2.758-7.288h0.586l2.758,7.288h-0.641L155.508,47.853z
			 M152.39,47.332h2.923l-1.461-3.97L152.39,47.332z"/>
		<path fill="#FFFFFF" d="M162.276,43.133h-2.497v6.767h-0.616v-6.767h-2.492v-0.521h5.605V43.133z"/>
		<path fill="#FFFFFF" d="M166.992,47.853h-3.31l-0.75,2.047h-0.646l2.758-7.288h0.585l2.759,7.288h-0.641L166.992,47.853z
			 M163.874,47.332h2.923l-1.462-3.97L163.874,47.332z"/>
		<path fill="#FFFFFF" d="M169.459,49.899v-7.288h2.152c0.781,0,1.373,0.161,1.777,0.484c0.403,0.321,0.605,0.797,0.605,1.425
			c0,0.377-0.104,0.705-0.309,0.984c-0.205,0.278-0.486,0.478-0.843,0.598c0.423,0.094,0.765,0.302,1.023,0.627
			c0.259,0.322,0.388,0.695,0.388,1.119c0,0.645-0.207,1.146-0.623,1.509c-0.416,0.361-0.993,0.542-1.734,0.542H169.459z
			 M170.075,45.88h1.682c0.514-0.01,0.912-0.13,1.194-0.362s0.423-0.571,0.423-1.016c0-0.468-0.146-0.814-0.438-1.036
			c-0.293-0.222-0.734-0.333-1.324-0.333h-1.537V45.88z M170.075,46.401v2.978h1.848c0.527,0,0.945-0.134,1.254-0.402
			c0.309-0.268,0.463-0.64,0.463-1.116c0-0.449-0.148-0.806-0.443-1.066c-0.295-0.262-0.703-0.393-1.224-0.393H170.075z"/>
		<path fill="#FFFFFF" d="M179.676,47.853h-3.309l-0.752,2.047h-0.645l2.758-7.288h0.586l2.758,7.288h-0.641L179.676,47.853z
			 M176.557,47.332h2.924l-1.462-3.97L176.557,47.332z"/>
		<path fill="#FFFFFF" d="M186.268,48.108c0-0.404-0.143-0.724-0.426-0.959s-0.802-0.458-1.557-0.671
			c-0.754-0.212-1.305-0.443-1.651-0.693c-0.494-0.354-0.741-0.817-0.741-1.392c0-0.557,0.229-1.01,0.689-1.358
			c0.458-0.349,1.045-0.523,1.758-0.523c0.484,0,0.918,0.093,1.3,0.28c0.382,0.187,0.679,0.447,0.888,0.781
			c0.211,0.334,0.316,0.705,0.316,1.116h-0.621c0-0.499-0.17-0.9-0.51-1.203c-0.342-0.303-0.799-0.454-1.373-0.454
			c-0.557,0-1,0.125-1.331,0.373c-0.33,0.25-0.495,0.574-0.495,0.976c0,0.371,0.148,0.674,0.445,0.907
			c0.297,0.234,0.772,0.44,1.427,0.619c0.654,0.18,1.149,0.365,1.487,0.557c0.336,0.191,0.59,0.422,0.76,0.688
			c0.171,0.267,0.256,0.582,0.256,0.945c0,0.574-0.23,1.035-0.689,1.382c-0.458,0.348-1.063,0.521-1.813,0.521
			c-0.515,0-0.985-0.091-1.414-0.274c-0.429-0.185-0.755-0.44-0.977-0.771s-0.333-0.71-0.333-1.136h0.616
			c0,0.514,0.192,0.919,0.575,1.216c0.384,0.296,0.895,0.445,1.532,0.445c0.567,0,1.022-0.125,1.366-0.375
			C186.096,48.854,186.268,48.522,186.268,48.108z"/>
		<path fill="#FFFFFF" d="M192.241,46.405h-3.41v2.974h3.92v0.521h-4.535v-7.288h4.51v0.521h-3.895v2.753h3.41V46.405z"/>
	</g>
	<g>
		<path fill="#24AFB2" d="M0,19.821c0-3.382,0.754-6.074,2.264-8.08s3.559-3.009,6.147-3.009c2.938,0,5.178,1.162,6.721,3.481V0
			h2.394v30.908h-2.253l-0.1-2.897c-1.543,2.199-3.81,3.299-6.801,3.299c-2.509,0-4.531-1.009-6.067-3.027
			C0.767,26.263,0,23.537,0,20.103V19.821z M2.435,20.241c0,2.779,0.557,4.968,1.67,6.572c1.114,1.603,2.683,2.403,4.708,2.403
			c2.965,0,5.071-1.307,6.319-3.924V15.071c-1.249-2.83-3.341-4.245-6.279-4.245c-2.025,0-3.601,0.795-4.728,2.385
			C2.999,14.8,2.435,17.145,2.435,20.241z"/>
		<path fill="#24AFB2" d="M41.392,20.241c0,3.396-0.752,6.09-2.253,8.081c-1.503,1.992-3.521,2.987-6.058,2.987
			c-3.032,0-5.325-1.127-6.881-3.379l-0.101,2.978h-2.254V0h2.395v12.294c1.529-2.374,3.795-3.562,6.801-3.562
			c2.576,0,4.611,0.983,6.107,2.949c1.496,1.964,2.244,4.697,2.244,8.198V20.241z M38.977,19.821c0-2.871-0.557-5.088-1.67-6.65
			c-1.114-1.564-2.683-2.345-4.709-2.345c-1.542,0-2.85,0.379-3.924,1.138c-1.073,0.757-1.885,1.867-2.434,3.329v9.819
			c1.207,2.737,3.34,4.104,6.398,4.104c1.985,0,3.539-0.784,4.659-2.353C38.417,25.293,38.977,22.946,38.977,19.821z"/>
		<path fill="#FFFFFF" d="M52.217,26.059h12.818v4.85H46.181V1.61h6.037V26.059z"/>
		<path fill="#FFFFFF" d="M67.208,19.821c0-2.16,0.416-4.086,1.248-5.776c0.832-1.689,2.029-2.998,3.591-3.923
			c1.563-0.926,3.377-1.39,5.444-1.39c2.938,0,5.335,0.9,7.193,2.697c1.857,1.798,2.894,4.239,3.109,7.323l0.04,1.488
			c0,3.341-0.932,6.021-2.797,8.041c-1.864,2.019-4.367,3.027-7.505,3.027c-3.139,0-5.645-1.005-7.516-3.018
			c-1.872-2.013-2.808-4.749-2.808-8.211V19.821z M73.024,20.233c0,2.068,0.389,3.651,1.167,4.746
			c0.778,1.095,1.892,1.644,3.34,1.644c1.409,0,2.508-0.543,3.3-1.624c0.791-1.08,1.188-2.811,1.188-5.188
			c0-2.029-0.396-3.603-1.188-4.716c-0.792-1.115-1.905-1.674-3.34-1.674c-1.422,0-2.522,0.555-3.3,1.664
			C73.413,16.193,73.024,17.909,73.024,20.233z"/>
		<path fill="#FFFFFF" d="M109.424,18.934h-11.59v11.975h-6.037V1.61h19.076V6.5H97.834v7.565h11.59V18.934z"/>
	</g>
</g>
</svg>
